<svg xmlns="http://www.w3.org/2000/svg" viewBox="0 0 136.71 136.6"><defs><style>.cls-1{fill:#868a4e;}.cls-2{fill:#d0d597;}.cls-3{fill:#fff;}</style></defs><g id="Ebene_2" data-name="Ebene 2"><g id="Ebene_1-2" data-name="Ebene 1"><g id="layer2"><path d="M134.34,86.32l-3.05,8.78q-11.67,25.85-36.88,36.36t-52.84-.36Q15.7,119.42,5.16,94.23a68.25,68.25,0,0,1-4.56-17L0,68.37A68.24,68.24,0,0,1,2.44,50.21Q10.81,22.4,34.51,8.9T86.43,2.37q27.84,8.38,41.35,32.07t6.56,51.88"/><path class="cls-1" d="M67.74,1.2A64.88,64.88,0,0,0,35.11,9.94Q11.81,23.2,3.59,50.55h0A66.8,66.8,0,0,0,1.2,68.34h0l.59,8.83h0A67.42,67.42,0,0,0,6.26,93.78h0Q16.61,118.51,42,130h0A73.32,73.32,0,0,0,69,135.41a65,65,0,0,0,25-5h0Q118.69,120,130.17,94.68h0l3-8.68h0q6.83-27.72-6.44-51T86.13,3.53h0A76.42,76.42,0,0,0,67.74,1.2Z"/><path d="M67.74,27.19A39.35,39.35,0,0,0,48,32.53h0q-14.11,8-19.4,25.17h0a41,41,0,0,0-1.39,9.84h0l.47,6.89h0a41.37,41.37,0,0,0,2.62,9.42h0q6.3,14.94,21.88,22.2h0A47.09,47.09,0,0,0,69,109.42a39.17,39.17,0,0,0,15-3h0q14.82-6.18,22.1-21.45h0l2.16-6.2h0q3.84-17-4-30.81h0q-8-14-24.92-19.31h0A50.22,50.22,0,0,0,67.74,27.19Z"/><path class="cls-2" d="M112.18,117.41l-2.1,1.38q-6.56,3.9-12.13,3.95t-7.41-4c-1-2.73-.34-5.89,1.86-9.51A24.06,24.06,0,0,1,95,105.76l1.6-1.69a33.34,33.34,0,0,1,3.8-3.16,27.85,27.85,0,0,1,12.39-5.21c3.94-.48,6.81.41,8.58,2.67q2.36,3.63-.24,9t-8.93,10"/><path class="cls-3" d="M49.46,50.29l-.52,2.11a16,16,0,1,1-1-12.29A16.3,16.3,0,0,1,49.33,44L49.65,46a15.79,15.79,0,0,1-.19,4.27"/></g></g></g></svg>