<svg xmlns="http://www.w3.org/2000/svg" viewBox="0 0 136.71 136.6"><defs><style>.cls-1{fill:#868a4e;}.cls-2{fill:#d0d597;}.cls-3{fill:#fff;}</style></defs><g id="Ebene_2" data-name="Ebene 2"><g id="Ebene_1-2" data-name="Ebene 1"><g id="layer2"><path d="M134.34,86.32l-3.05,8.78q-11.67,25.85-36.88,36.36t-52.84-.36Q15.7,119.42,5.16,94.23a68.25,68.25,0,0,1-4.56-17L0,68.37A68.24,68.24,0,0,1,2.44,50.21Q10.81,22.4,34.51,8.9T86.43,2.37q27.84,8.38,41.35,32.07t6.56,51.88"/><path class="cls-1" d="M68.32,1.62A66.76,66.76,0,1,0,86,4,66.67,66.67,0,0,0,68.32,1.62Z"/><path d="M68.44,28.87a39.36,39.36,0,0,0-19.78,5.34h0q-14.11,8-19.39,25.18h0a41.46,41.46,0,0,0-1.39,9.83h0l.47,6.9h0A40.66,40.66,0,0,0,31,85.53h0q6.29,15,21.87,22.21h0a47.29,47.29,0,0,0,16.81,3.36,39.25,39.25,0,0,0,15-3h0q14.82-6.18,22.1-21.45h0l2.16-6.2h0q3.84-17-4-30.8h0q-8-14-24.92-19.31h0A50.14,50.14,0,0,0,68.44,28.87Z"/><path class="cls-2" d="M110,118.57l-2.1,1.39q-6.55,3.89-12.13,3.94t-7.41-4q-1.44-4.08,1.86-9.5a24.69,24.69,0,0,1,2.58-3.47l1.6-1.68a33.34,33.34,0,0,1,3.8-3.16q6.46-4.5,12.39-5.21c3.94-.48,6.81.41,8.58,2.67q2.35,3.61-.24,9a27.77,27.77,0,0,1-8.93,10"/><path class="cls-3" d="M50.53,52.58,50,54.69a15.95,15.95,0,0,1-30.72-1.43l-.32-2a15.94,15.94,0,1,1,31.57,1.37"/></g></g></g></svg>