<svg xmlns="http://www.w3.org/2000/svg" viewBox="0 0 225.9 177.65"><defs><style>.cls-1{fill:#f4f4f4;}.cls-2{fill-opacity:0.1;}</style></defs><g id="Ebene_2" data-name="Ebene 2"><g id="Ebene_1-2" data-name="Ebene 1"><g id="layer2"><path class="cls-1" d="M214.3,56l-6.49-5.62a272.29,272.29,0,0,0-39.73-29.92A94.78,94.78,0,0,0,139.72,9.09a70.94,70.94,0,0,0-14.54-1.47q-3.48-.69-21.56,2.65a132.41,132.41,0,0,0-14.38,4.25l-7.06,2.71q-7,2.89-13.68,6.32Q39.78,39.44,28.39,50.74,14.68,63.16,8.05,76.6A73.06,73.06,0,0,0,.72,105.54q-1.08,18,3.94,48.61Q51,174.85,84.37,177.43a109,109,0,0,0,33.62-3q4.67-.36,27-9.62,45.45-21.53,68.28-54.59,7.27-11.44,7.69-28.56.07-3.79,0-7.56L214.3,56"/><path class="cls-2" d="M125.18,7.62C96.84,7.62,65.88,23,44.11,38.29,20.5,54.85,7.69,71.3,2.92,90.58S1.4,132,4.66,154.15l2.16.88q6.59-26.39,11-37.87,9.51-24.33,12.42-28a101.41,101.41,0,0,1,9.16-14h0c.91-1.17,1.84-2.3,2.79-3.41h0A88.19,88.19,0,0,1,69.3,50.39q23.92-11.32,48.14-11.32a105.35,105.35,0,0,1,14.59,1h0c1.27.18,2.54.38,3.82.61h0a118.94,118.94,0,0,1,22.59,6.39Q187.34,59.69,220,92.26c1.1-6.25,1-12.18,1-18.11L214.3,56c-25.93-22.53-51.87-45.07-82-48Q128.76,7.62,125.18,7.62Z"/><path class="cls-2" d="M125.18,7.62C96.84,7.62,65.88,23,44.11,38.29,20.5,54.85,7.69,71.3,2.92,90.58.33,101,.1,112.29,1,123.94q18.92-46.8,42.12-70.87A106.11,106.11,0,0,1,71.46,32.8a112.47,112.47,0,0,1,16.33-6.51L96.26,24a102.5,102.5,0,0,1,17.16-2.37c1.73-.1,3.46-.15,5.17-.15a85.73,85.73,0,0,1,28.19,4.69l7.75,3.21a98.34,98.34,0,0,1,14.67,8.74Q173,40,189.51,55.93,199.26,65.4,220,92.4c1.12-6.3,1.05-12.27,1-18.25L214.3,56c-25.93-22.53-51.87-45.07-82-48Q128.76,7.62,125.18,7.62Z"/><path d="M214.16,107.89l1.48-2.79q6.84-12.52,4.69-21.65-1.53-10.62-16.19-25.89-15.36-15.83-39-29-13.92-8.14-34.88-12.7-20.67-4-45.83,3.52a116.49,116.49,0,0,0-11.2,4.26q-3,.93-15.45,8.23A121.68,121.68,0,0,0,38.46,47Q-1.32,86,3.83,138.93-.66,114.81.11,101.12q.33-16.38,9.22-33.5,9.51-17.46,26.94-33,21-17.16,32.11-21.69A126.17,126.17,0,0,1,103.63,1.48q22.94-3.24,39.32.61a111.38,111.38,0,0,1,42.39,19.19Q205,35.64,216.18,51.88q10.62,15.79,9.63,27.65,1,8.46-11.65,28.36"/></g></g></g></svg>