<svg id="Icon_feather-settings" data-name="Icon feather-settings" xmlns="http://www.w3.org/2000/svg" width="29.058" height="29.058" viewBox="0 0 29.058 29.058">
  <path id="Pfad_9" data-name="Pfad 9" d="M20.607,17.053A3.553,3.553,0,1,1,17.053,13.5,3.553,3.553,0,0,1,20.607,17.053Z" transform="translate(-2.524 -2.524)" fill="none" stroke="#c7c7c7" stroke-linecap="round" stroke-linejoin="round" stroke-width="3"/>
  <path id="Pfad_10" data-name="Pfad 10" d="M23.294,18.082a1.954,1.954,0,0,0,.391,2.156l.071.071A2.37,2.37,0,1,1,20.4,23.661l-.071-.071a1.97,1.97,0,0,0-3.34,1.4v.2a2.369,2.369,0,1,1-4.738,0v-.107a1.954,1.954,0,0,0-1.279-1.789,1.954,1.954,0,0,0-2.156.391l-.071.071A2.37,2.37,0,1,1,5.4,20.4l.071-.071a1.97,1.97,0,0,0-1.4-3.34h-.2a2.369,2.369,0,1,1,0-4.738h.107a1.954,1.954,0,0,0,1.789-1.279A1.954,1.954,0,0,0,5.373,8.82L5.3,8.749A2.37,2.37,0,1,1,8.654,5.4l.071.071a1.954,1.954,0,0,0,2.156.391h.095A1.954,1.954,0,0,0,12.16,4.07v-.2a2.369,2.369,0,1,1,4.738,0v.107a1.97,1.97,0,0,0,3.34,1.4l.071-.071a2.37,2.37,0,1,1,3.352,3.352l-.071.071a1.954,1.954,0,0,0-.391,2.156v.095a1.954,1.954,0,0,0,1.789,1.184h.2a2.369,2.369,0,1,1,0,4.738h-.107a1.954,1.954,0,0,0-1.789,1.184Z" transform="translate(0 0)" fill="none" stroke="#c7c7c7" stroke-linecap="round" stroke-linejoin="round" stroke-width="3"/>
</svg>
